<?xml version="1.0" encoding="utf-8"?>
<svg viewBox="0 0 300 200" fill="none" xmlns="http://www.w3.org/2000/svg">
  <style>
    .logo {
      font-size: 28pt;
      font-family: 'Segoe UI', Tahoma, Geneva, Verdana, sans-serif;
      stroke: white;
      fill: white;
      text-anchor: middle;
      dominant-baseline: middle;
    }
  </style>
  <defs>
    <linearGradient id="background-gradient" gradientTransform="rotate(45)">
      <stop offset="5%" stop-color="#00A9FA" />
      <stop offset="95%" stop-color="#093F87" />
    </linearGradient>
    <filter id="inset-shadow">
      <feOffset dx="1" dy="1"/>                                                         <!-- Shadow Offset -->
      <feGaussianBlur stdDeviation="5" result="offset-blur"/>                            <!-- Shadow Blur -->
      <feComposite operator="out" in="SourceGraphic" in2="offset-blur" result="inverse"/> <!-- Invert the drop shadow to create an inner shadow -->
      <feFlood flood-color="black" flood-opacity="1" result="color"/>                   <!-- Color & Opacity -->
      <feComposite operator="in" in="color" in2="inverse" result="shadow"/>               <!-- Clip color inside shadow -->
      <feComponentTransfer in="shadow" result="shadow2">                                   <!-- Shadow Opacity -->
        <feFuncA type="linear" slope="0.4"/>
      </feComponentTransfer>
      <feComposite operator="over" in="shadow2" in2="SourceGraphic"/>               <!-- Put shadow over original object -->
    </filter>
    <filter id="background-blend">
      <feComponentTransfer in="SourceGraphics" result="out">
        <feFuncA type="linear" slope="0.03"/>
      </feComponentTransfer>
    </filter>
  </defs>
  <rect id="frame" x="0" y="0" width="100%" height="100%" rx="20px" ry="20px" fill="url(#background-gradient)"/>
  <rect id="inner-frame" x="2%" y="8%" width="96%" height="84%" rx="10px" ry="10px" filter="url(#inset-shadow)"
    fill="url(#background-gradient)"/>
  <image id="qrcode-background" x="0" y="0" heigth="100%" width="100%" filter="url(#background-blend)"
    href="./connectify-qrcode-noborders.png"/>
  <g fill="white">
    <svg id="wifi-logo" x="20%" y="12%" viewBox="0 0 100 80" xmlns="http://www.w3.org/2000/svg">
      <path d="M 6.4 13 C 11.4 9.2 17.6 7 24 7 C 30.4 7 36.6 9.2 41.6 13 C 42.6 13.6 43.8 13.6 44.6 12.8
        L 45.8 11.2 C 46.6 10.4 46.4 9.2 45.6 8.4 C 39.4 3.6 31.8 1 24 1 C 16.2 1 8.6 3.6 2.4 8.4
        C 1.6 9.2 1.4 10.4 2.2 11.2 L 3.6 12.8 C 4.2 13.6 5.6 13.6 6.4 13 Z"/>
      <path d="M 13.6 20.2 C 16.6 18.2 20.4 17 24 17 C 27.8 17 31.6 18.2 34.6 20.2 C 35.6 20.8 36.8
        20.8 37.6 19.8 L 38.8 18.4 C 39.6 17.4 39.4 16.2 38.6 15.6 C 34.2 12.6 29.2 11 24 11
        C 18.8 11 13.8 12.6 9.6 15.6 C 8.8 16.2 8.6 17.4 9.4 18.4 L 10.6 19.8 C 11.4 20.8 12.6 20.8 13.6 20.2 Z"/>
      <path d="M 24 27 C 22.8 27 21.6 27.2 20.6 27.6 C 19.6 28.2 18.2 28 17.6 27 L 16.4 25.4
        C 15.8 24.6 16 23.2 17 22.8 C 19.2 21.6 21.6 21 24 21 C 26.4 21 28.8 21.6 31 22.8
        C 32 23.2 32.2 24.6 31.6 25.4 L 30.4 27 C 29.8 28 28.6 28.2 27.4 27.6 C 26.4 27.2 25.2 27 24 27 Z"/>
      <path d="M 24 39 C 26.2 39 28 37.2 28 35 C 28 32.8 26.2 31 24 31 C 21.8 31 20 32.8 20 35
        C 20 37.2 21.8 39 24 39 Z"/>
    </svg>
  </g>
  <text class="logo" x="50%" y="75%">connectify</text>
</svg>
